<svg id="Layer_1" data-name="Layer 1" xmlns="http://www.w3.org/2000/svg" viewBox="0 0 512 481"><defs><style>.cls-1{fill:#fff;}</style></defs><title>Artboard 1</title><path class="cls-1" d="M0,262V122.4c5.34-8.92,15.41-7.69,24.15,1.73h9.68c7.53-10.83,15-23.51,24.35-34.57,16.5-19.48,34.24-37.91,51.28-56.94,1.88-2.1,4.17-5.75,3.54-7.84-3.36-11,.55-18.69,9.4-24.78H391.33c1.51,1.63,3.23,4.82,4.51,4.65,10.47-1.4,17.4,5,25.21,10.06,5.07,3.27,10.81,6.16,16.64,7.39,4.72,1,7.53,1.76,7.18,7.13a4.36,4.36,0,0,0,1.62,3.39c7.67,4.66,11.45,10.91,11.23,20.31-.07,3,4.29,6.11,5.57,7.79,2.5,4,3.63,7.1,5.77,9.08,6.65,6.15,16.19,9.73,17.49,20.48,0,.36.83.64,1.57,1.16l7.36-1.92,3.76,18.09,1.77-1.49,4.26,5.51c5.65-1.43,6.91-5.63,6.86-11.73C511.85,66.6,512,33.3,512,0c.57,2.59,1.65,5.17,1.65,7.76q.12,237.47.07,474.93H0v-81l24.37-10.18a4.13,4.13,0,0,1,2.17-3.76c4.32-3,9.35-5.29,12.81-9,2.48-2.69,2.88-7.29,4-10.53l-14.33,7.4L28.26,369l-3,.45c.5,3.17,1,6.33,1.22,7.81-3.55.57-6.9.77-10,1.68-5.56,1.59-11,3.62-16.48,5.46V322.37l21.89-5.6.87-1.38-9.24-2.5-.39-1.4,21.33-3.79c2.49-1.76,5.28-6.51,4.37-10.39C36.9,289.12,33,281.4,30,273.47c-.47-1.24-.66-3.62-1.11-3.65a68.23,68.23,0,0,0-8.87.39c-.64-2.14-1.7-5.66-2.75-9.19l-.9.33.95,12.17-2,1.56-8.47-6.23L15.28,262Zm440.63,73.59c6.14,1.45,4.2-3.36,3.95-5.76-.76-7.28-2.67-14.47-3.09-21.76-.56-9.64-.14-19.33-.14-29.05-5.35,2.19-9.67,7.63-15-.6-1.3-2-10.56-1.55-13.92.88-6.67,4.83-12.15,11.52-17.36,18-2.13,2.68-2.29,6.94-3.35,10.48,3.19.82,6.34,1.78,9.56,2.43,3.52.7,9.3,0,10.28,1.84,6.22,11.93,15.07,19.85,28.4,22.52.36.07.6.81.93,1.27-8.1-.88-16.61-.5-24.23-2.91-15.6-4.94-27,6.06-40.56,8.62a312.82,312.82,0,0,0,38-.59,57.22,57.22,0,0,1,33.47,7.86c9.78,5.7,10.5,5.8,14.32-4.95C455.19,340.4,445.88,342.9,440.63,335.62ZM225.56,116.84l-9.2-8.35c-9.55,5.92-1.27,14.18.56,22.85-7.8-1-11.12-14.7-19.56-7.17-1.87-2.41-3-5.16-4.92-6.12a208.76,208.76,0,0,0-19.9-8.31c-6.52-2.37-13.32-6.17-19.83-5.85-9.84.48-19.54,4-31.26,6.66l8.23,3.82c.16,3-.1,5.59.5,7.91,1,3.9,3.24,7.57,3.76,11.49,1.64,12.45,14.37,21.22,26.55,19,4.88-.9,11.35-.56,15.26,2,11,7.27,21.39,7.48,32.72,1.51,2.86-1.51,6.49-1.54,9.95-2.29,1.46-2,4.16-4.51,5.46-7.62,4.09-9.77,3.88-9.86,11.66-4.2,10.12-7.3,17.81-15.64,10.89-30.53-1.06,5.12-2,9.43-2.77,13.36-3.84,2.56-11.75-4.56-14.45,6.39-1.3-4.93-2.61-9.87-3.89-14.78l6.71,3.46,10.58-4.57c-2.67-8.11-2.67-8.11-16.44-6.07C226,111.83,225.76,114.34,225.56,116.84Zm145,136.44c4.06.61,9.64,3.2,11.91,1.46a35.32,35.32,0,0,0,13.91-25c.54-5.51-2.47-10.61-8.1-10.38-7.21.3-15.18,1.29-21.3,4.71-10.61,5.94-19.88,14.23-30.06,21-5.2,3.46-11.14,5.26-16.14.43-2.86,1.07-5.63,1.72-8,3.1-1.64,1-3.58,2.8-3.84,4.49-.61,4.05.28,8.37-.5,12.36-1.44,7.3-3.66,14.44-5.55,21.65l-1.66-.3V275.49L296,281.4c0-4.12-.52-6.94.11-9.47,1.24-4.91,5.34-10.24,4.26-14.34-1.78-6.76,1.4-11,3.7-16.11,2.73-6.07,7.33-12.15,7.54-18.34.45-13.15-1.42-26.37-2.48-41.56l-5.64,11.69-5.32-5.55-7.59-7.52-1,1.33,1.9,6.16H281l12.39,8.2c-9,9.75-17.17,19.1-25.94,27.89-2.13,2.13-6.15,2.39-9.93,3.74l-3.35-9.45-13.91,4.85,12.63,4.81-.36,1.3-24.34-4,6.34-4.14-1.08-1.77-30.35,17.82,1.74.55-8.31,14.37c.51,2.48,1.26,6.1,1.86,9,4.57-4.81,10.06-8.82,13.11-14.21C217,237,220.13,234.32,229,235.88l.68,2.25-8.41,2-5.74,6.28,22.16,8.1-.72,2.31-5.66-.73c-.23,2.23-.47,4.56-.7,6.83-11.14-.75-11.14-.75-10.46,7.51l7.91-3.66,2,2.5c-1.81,1.64-3.67,3.22-5.42,4.91s-3.57,3.88-5.52,5.63c-1.62,1.44-4,4-5.19,3.6-5.71-2-11.12-4.82-16.37-7.23l-6,5.69-2.36-2.15,5.38-7.73c-3-2.14-6.07-4.28-7.35-5.17l-10.51,5.11-2.3-2.81,7.76-2.93L180,263.46l-14,7.83,12,4.1c-3.83,2.82-1.75,15.06-11.9,6-.26-.23-1.38.58-2.13.82-5.82,1.9-11.6,3.91-17.49,5.55-1.22.34-2.87-.67-4.26-1.21-2.26-.88-4.47-2.69-6.71-2.71-12.13-.11-24.33.93-36.39.09-6.46-.45-11.32.43-16.38,4.39-1.84,1.44-6.74,1.43-8.45,0-2.54-2.16-4.19-6-5-9.46-1.66-7.39-2.51-14.95-3.91-23.78l-17.22-6,1.44,14.44c9.78-2.07,9.78-2.07,9.25,5.55H38.73c.18,3.37.42,4.94.32,6.48-.87,14,4.45,26,17.39,30.57,14.29,5.05,21.79,15,28.17,27.19,1.39,2.64,2.65,7.07,4.56,7.42,8.39,1.55,17,1.94,25.52,2.67,3.08.26,6.24-.05,9.26.46,20.86,3.54,41.56,8.53,62.33-1.43A30.57,30.57,0,0,1,204.49,340c10.09,2.13,16.09-2.74,22.15-8.94.4-.42.75-1,1.24-1.19,7.57-3.4,11-13.52,21.26-12.76,4.65.34,9.4-.49,14.1-.79v4.56c8.69-5.22,17-2,21.51,3.62s4.95,14.35,6.94,20.92l2.18-3.41c3.1,2.78,6.24,5.58,9.38,8.38-13.39-27.41-15.9-50-5.53-58l1.21,4.89,3.7-9.31c.68,4.67,1,6.82,1.28,8.82,5.34-14.06,10.65-28,16-42.18,10,12,11.65,11.89,20.94.3,7.48-9.33,21.83-15.83,29.91-1.34-16.58-6.78-24.36-3.9-32.48,13.8l16.59-11.82,1.36,1.33c-.64,1.59-1.29,3.18-2.12,5.23l8.67-2.85,14.9,6.12C374.44,259.85,372.48,256.57,370.53,253.28Zm-7.08,139.45c-2.21,8.72,4.21,8.76,8.72,11.69,25.79,16.74,55.16,19.33,84.4,23.5,8.79,1.25,18.42,4,22.21,15.31,5.13,15.28,21.27,17.32,33,26.78V334.47c-3.77-.43-7.24-.92-10.73-1.2-3.95-.33-7.92-.46-12-.68v6.71l-11.27.72c-.21,2.79-.39,5-.56,7.29l-2,.72-3.93-9.84c-1.32,3.37-2.6,5.72-3.11,8.23-.37,1.83.54,3.88.41,5.8a30.46,30.46,0,0,1-1.32,5.47l5.89-2.23c2.94,12.94-.14,25-5.28,36.8l-1.27-12.53-6.39,7.84a6,6,0,0,1-4.43,3.32c-3.32.5-8.4,1.79-9.83.17-5.59-6.29-10.38.29-15.42.12-.69,0-1.48,3.13-2.44,5.29ZM476,264.05l-2.37-1.27c2.39-8.42-.35-15-7.2-19.21a174.23,174.23,0,0,0-20.55-10.93c-6.13-2.75-12.52-5.45-19.06-6.56-6.7-1.14-12.64,7.43-9.4,13.36,3.71,6.77,8.67,12.86,13.18,19.38,8.6-4.77,16.91-9.06,26-1.22-5.22-.24-10-1.07-14.61-.45-2.65.37-5.15,2.9-7.29,4.91-.43.4,1.21,4.16,1.62,4.11a44.9,44.9,0,0,0,7.4-2l-.84,1.84,15.25,8.38-.58,1.47h-9.64c5.33,7.47,18.18,8.86,23.75,3,2.67,3.5,5.32,7,8.07,10.61l3.3-4.59,9.8,8.74c.93-2.34,1.84-4.64,3.25-8.17l10.66,3.93c2.84-6.26,9.47-12.53.64-19.75l6,2.58c-1.9-6.81-4.45-11.88-4.46-17,0-8.29-6.21-9.5-11.29-10.2-2.85-.39-6.69,3.42-9.46,6C483.84,255.09,480,259.69,476,264.05ZM109.79,108.73c-10.48,4.36-19.75-8.2-29.93-1.25-8.5,5.81-16.66,12.12-25.17,17.9C44,132.65,47.05,143.92,46.44,154c-8.36-.42-11.63,2.69-11.15,8.68l7.23-6L43.67,163l2.09-3.22,3.31,13.15,26.13-10-9.28-2.24c5.57-2,11.68-2.42,12.66-4.89,3-7.47,5.75-3.94,9.52-1.38,3.16,2.14,6.75,3.65,11.62,6.2ZM112.26,226c5.68-3.22,11.47-6.28,17-9.71a89.49,89.49,0,0,0,11.54-8.33c2.28-2,4.89-4.59,5.44-7.31.71-3.44,1.52-7.46-4.19-9.57-6.16-2.29-9.12-13-18.55-6.75-8.55-9.12-18.67-.55-29.42-4,1.18,17.16,2.24,32.68,3.3,48.21l-20.26,12c.41,1.15.83,2.29,1.24,3.44,2.91-.88,6.36-1,8.65-2.75,8.87-6.63,18.35-11.28,29.68-10.09,13.25,1.39,26.46,3.23,40,4.91C143.42,226.74,129.14,222.31,112.26,226Zm364.87-22.39c-1.61-3.95-1.9-6.68-3.42-8a161.16,161.16,0,0,0-13.36-10.09c-5.11-3.64-10.33-7.13-15.5-10.68l-2.2,2.07c.41,4.09.82,8.18,1.08,10.73l-12-4.53-1.79,2.26c-.84-3.48-1.68-7-2.31-9.54-7.63-7.79-16.46-12.66-29.13-9.23,5,2.28,9.13,3.83,12.92,5.94,4.62,2.58,9.8,4.88,13.28,8.64C431,188,436,196,442,203.17c8.83,10.55,18,20.79,26.51,30.51.22-3.27,13.3,1.16,7.88-9.35,12.05-1.44,19.93,5.37,28.13,13q-2.88-10.62-5.77-21.24l-1.79.46c.22,1.85.43,3.7.87,7.53-7.17-6.26-13.44-8-21.56-7.49-5.91.36-12.65-4.24-18.12-8-4.38-3-7.41-8-11.46-12.52.58-1,1.76-4.18,2.46-4.07,5.36.79,10.63,2.21,14.84,3.19,2.15,4.45,3.91,8.11,5.73,11.9l8.88-1.82,0-1.34Zm-443,3.84c-6.3.37-13.14-13-21.55-1.11l11.66,1.32c-1.33,9.1-2.65,17.15-3.57,25.25-.18,1.56,1.21,3.3,1.87,4.95,1.67-1.47,4.32-2.64,4.86-4.45C29.92,224.91,31.87,216.27,34.11,207.41ZM6.93,182.46l-2,8.88h11.4l-7.51,8.32-4.35-5.73L2.22,212.75c3.65-3.9,8.22-6.56,9-10.06,1.75-7.79,8.07-2.5,9.38-5.45l.55-9.7Zm31.52,45.45c1.08-4.29,1.83-7.26,2.57-10.22l-2.71-.19C33.63,232.67,40,247.83,40,262.75l5.5-18.86-1.34-.28-2.14,4-2.08-.85,4.27-17.24Zm131.9,132.93.41-3.19-24-3.2C147.62,365.13,155.41,366.68,170.35,360.84Zm282.28-1.95c.3-1.28.59-2.57.89-3.85l-32-7.4-.71,3.13ZM319.35,205.13l.13,3.34c8.9-.8,18.24,2.33,26.65-2.72-4.46-.4-8.8.26-13.14.28C328.44,206.05,323.9,205.45,319.35,205.13Zm27.78-40.49c.63-3.06,1.27-6.12,1.87-9l9.38-1.16C346.06,149.83,344,151.73,347.13,164.64Z"/><path d="M122.4,0c-8.85,6.09-12.76,13.79-9.4,24.78.63,2.09-1.66,5.74-3.54,7.84-17,19-34.78,37.46-51.28,56.94-9.37,11.06-16.82,23.74-24.35,34.57H24.15C15.41,114.71,5.34,113.48,0,122.4V0Z"/><path d="M512,0c0,33.3-.15,66.6.13,99.9,0,6.1-1.21,10.3-6.86,11.73L501,106.12l-1.77,1.49-3.76-18.09-7.36,1.92c-.74-.52-1.53-.8-1.57-1.16C485.25,79.53,475.71,76,469.06,69.8c-2.14-2-3.27-5-5.77-9.08-1.28-1.68-5.64-4.79-5.57-7.79.22-9.4-3.56-15.65-11.23-20.31a4.36,4.36,0,0,1-1.62-3.39c.35-5.37-2.46-6.13-7.18-7.13-5.83-1.23-11.57-4.12-16.64-7.39-7.81-5-14.74-11.46-25.21-10.06-1.28.17-3-3-4.51-4.65Z"/><path d="M0,262H15.28l-8.42,6.82,8.47,6.23,2-1.56-.95-12.17.9-.33c1.05,3.53,2.11,7.05,2.75,9.19a68.23,68.23,0,0,1,8.87-.39c.45,0,.64,2.41,1.11,3.65,3,7.93,6.92,15.65,8.85,23.84.91,3.88-1.88,8.63-4.37,10.39l-21.33,3.79.39,1.4,9.24,2.5-.87,1.38L0,322.37Z"/><path d="M0,384.43c5.49-1.84,10.92-3.87,16.48-5.46,3.15-.91,6.5-1.11,10.05-1.68-.23-1.48-.72-4.64-1.22-7.81l3-.45.79,6.53,14.33-7.4c-1.15,3.24-1.55,7.84-4,10.53-3.46,3.75-8.49,6.07-12.81,9a4.13,4.13,0,0,0-2.17,3.76L0,401.67Z"/><path d="M303.48,193.27l5.64-11.69c1.06,15.19,2.93,28.41,2.48,41.56-.21,6.19-4.81,12.27-7.54,18.34-2.3,5.1-5.48,9.35-3.7,16.11,1.08,4.1-3,9.43-4.26,14.34-.63,2.53-.11,5.35-.11,9.47l5.24-5.91v11.34l1.66.3c1.89-7.21,4.11-14.35,5.55-21.65.78-4-.11-8.31.5-12.36.26-1.69,2.2-3.52,3.84-4.49,2.34-1.38,5.11-2,8-3.1,5,4.83,10.94,3,16.14-.43,10.18-6.77,19.45-15.06,30.06-21,6.12-3.42,14.09-4.41,21.3-4.71,5.63-.23,8.64,4.87,8.1,10.38a35.32,35.32,0,0,1-13.91,25c-2.27,1.74-7.85-.85-11.91-1.46l.25.25c-8.08-14.49-22.43-8-29.91,1.34-9.29,11.59-10.95,11.74-20.94-.3-5.37,14.15-10.68,28.12-16,42.18-.29-2-.6-4.15-1.28-8.82l-3.7,9.31c-.43-1.73-.82-3.31-1.22-4.89-10.36,8.06-7.85,30.61,5.54,58-3.14-2.8-6.28-5.6-9.38-8.38l-2.18,3.41c-2-6.57-2.49-15.33-6.94-20.92s-12.82-8.84-21.51-3.62V316.3c-4.7.3-9.45,1.13-14.1.79-10.27-.76-13.69,9.36-21.26,12.76-.49.22-.84.77-1.24,1.19-6.06,6.2-12.06,11.07-22.15,8.94a30.57,30.57,0,0,0-18.21,2.46c-20.77,10-41.47,5-62.33,1.43-3-.51-6.18-.2-9.26-.46-8.53-.73-17.13-1.12-25.52-2.67-1.91-.35-3.17-4.78-4.56-7.42-6.38-12.18-13.88-22.14-28.17-27.19-12.94-4.57-18.26-16.54-17.39-30.57.1-1.54-.14-3.11-.32-6.48H58.88c.53-7.62.53-7.62-9.25-5.55l-1.44-14.44,17.22,6c1.4,8.83,2.25,16.39,3.91,23.78.77,3.43,2.42,7.3,5,9.46,1.71,1.46,6.61,1.47,8.45,0,5.06-4,9.92-4.84,16.38-4.39,12.06.84,24.26-.2,36.39-.09,2.24,0,4.45,1.83,6.71,2.71,1.39.54,3,1.55,4.26,1.21,5.89-1.64,11.67-3.65,17.49-5.55.75-.24,1.87-1.05,2.13-.82,10.15,9.05,8.07-3.19,11.9-6l-12-4.1,14-7.83,2.15,2.72-7.76,2.93,2.3,2.81,10.51-5.11c1.28.89,4.31,3,7.35,5.17l-5.38,7.73,2.36,2.15,6-5.69c5.25,2.41,10.66,5.24,16.37,7.23,1.18.41,3.57-2.16,5.19-3.6,2-1.75,3.64-3.8,5.52-5.63s3.61-3.27,5.42-4.91l-2-2.5-7.91,3.66c-.68-8.26-.68-8.26,10.46-7.51.23-2.27.47-4.6.7-6.83l5.66.73.72-2.31-22.16-8.1,5.74-6.28,8.41-2-.68-2.25c-8.9-1.56-12,1.16-17.49,10.78-3,5.39-8.54,9.4-13.11,14.21-.6-2.92-1.35-6.54-1.86-9l8.31-14.37-1.74-.55,30.35-17.82,1.08,1.77L228.23,225l24.34,4,.36-1.3-12.63-4.81,13.91-4.85,3.35,9.45c3.78-1.35,7.8-1.61,9.93-3.74,8.77-8.79,17-18.14,25.94-27.89L281,187.69h10.41l-1.9-6.16,1-1.33,7.59,7.52c-1.12.94-3.07,1.77-3.22,2.85-.87,6.3-1.31,12.66-1.89,19l1.82.42,4.31-12.54h8.88Z"/><path d="M363.45,392.73l64.65,3.74c1-2.16,1.75-5.32,2.44-5.29,5,.17,9.83-6.41,15.42-.12,1.43,1.62,6.51.33,9.83-.17a6,6,0,0,0,4.43-3.32l6.39-7.84,1.27,12.53c5.14-11.8,8.22-23.86,5.28-36.81l-5.89,2.24a30.46,30.46,0,0,0,1.32-5.47c.13-1.92-.78-4-.41-5.8.51-2.51,1.79-4.86,3.11-8.23l3.93,9.84,2-.72c.17-2.25.35-4.5.56-7.29l11.27-.72v-6.71c4.06.22,8,.35,12,.68,3.49.28,7,.77,10.73,1.2V470c-11.74-9.46-27.88-11.5-33-26.78C475,432,465.36,429.17,456.57,427.92c-29.24-4.17-58.61-6.76-84.4-23.5C367.66,401.49,361.24,401.45,363.45,392.73Z"/><path d="M225.3,116.57l3.91,14.81c2.7-10.95,10.61-3.83,14.45-6.39.82-3.93,1.71-8.24,2.77-13.36,6.92,14.89-.77,23.23-10.89,30.53-7.78-5.66-7.57-5.57-11.66,4.2-1.3,3.11-4,5.63-5.46,7.62-3.46.75-7.09.78-9.95,2.29-11.33,6-21.72,5.76-32.72-1.51-3.91-2.57-10.38-2.91-15.26-2-12.18,2.24-24.91-6.53-26.55-19-.52-3.92-2.75-7.59-3.76-11.49-.6-2.32-.34-4.86-.5-7.91l-8.23-3.82c11.72-2.67,21.42-6.18,31.26-6.66,6.51-.32,13.31,3.48,19.83,5.85a208.76,208.76,0,0,1,19.9,8.31c2,1,3.05,3.71,4.92,6.12,8.44-7.53,11.76,6.17,19.56,7.17-1.83-8.67-10.11-16.93-.56-22.85l9.2,8.35Z"/><path d="M476,264.05c4-4.36,7.84-9,12.18-13,2.77-2.59,6.61-6.4,9.46-6,5.08.7,11.27,1.91,11.29,10.2,0,5.08,2.56,10.15,4.46,17l-6-2.58c8.83,7.22,2.2,13.49-.64,19.75l-10.66-3.93c-1.41,3.53-2.32,5.83-3.25,8.17l-9.8-8.74-3.3,4.59c-2.75-3.61-5.4-7.11-8.07-10.61-5.57,5.84-18.42,4.45-23.75-3h9.64l.58-1.47L442.89,266l.84-1.84a44.9,44.9,0,0,1-7.4,2c-.41.05-2.05-3.71-1.62-4.11,2.14-2,4.64-4.54,7.29-4.91,4.59-.62,9.39.21,14.61.45-9.1-7.84-17.41-3.55-26,1.22-4.51-6.52-9.47-12.61-13.18-19.38-3.24-5.93,2.7-14.5,9.4-13.36,6.54,1.11,12.93,3.81,19.06,6.56a174.23,174.23,0,0,1,20.55,10.93c6.85,4.25,9.59,10.79,7.2,19.21Z"/><path d="M109.79,108.73l-10.07,51.8c-4.87-2.55-8.46-4.06-11.62-6.2-3.77-2.56-6.52-6.09-9.52,1.38-1,2.47-7.09,2.88-12.66,4.89l9.28,2.24-26.13,10-3.31-13.15L43.67,163l-1.15-6.23-7.23,6c-.48-6,2.79-9.1,11.15-8.68.61-10.11-2.46-21.38,8.25-28.65,8.51-5.78,16.67-12.09,25.17-17.9C90,100.53,99.31,113.09,109.79,108.73Z"/><path d="M112.26,226c16.88-3.65,31.16.78,44.41,10-13.5-1.68-26.71-3.52-40-4.91-11.33-1.19-20.81,3.46-29.68,10.09-2.29,1.71-5.74,1.87-8.65,2.75-.41-1.15-.83-2.29-1.24-3.44l20.26-12c-1.06-15.53-2.12-31-3.3-48.21,10.75,3.5,20.87-5.07,29.42,4,9.43-6.29,12.39,4.46,18.55,6.75,5.71,2.11,4.9,6.13,4.19,9.57-.55,2.72-3.16,5.33-5.44,7.31a89.49,89.49,0,0,1-11.54,8.33C123.73,219.68,117.94,222.74,112.26,226Z"/><path d="M440.9,335.88c-.3-.43-.54-1.17-.9-1.24-13.33-2.67-22.18-10.59-28.4-22.52-1-1.88-6.76-1.14-10.28-1.84-3.22-.65-6.37-1.61-9.56-2.43,1.06-3.54,1.22-7.8,3.35-10.48,5.21-6.52,10.69-13.21,17.36-18,3.36-2.43,12.62-2.91,13.92-.88,5.29,8.23,9.61,2.79,15,.6,0,9.72-.42,19.41.14,29.05.42,7.29,2.33,14.48,3.09,21.76.25,2.4,2.19,7.21-3.95,5.76Z"/><path d="M477.13,203.57l1.49.39,0,1.34-8.88,1.82c-1.82-3.79-3.58-7.45-5.73-11.9-4.21-1-9.48-2.4-14.84-3.19-.7-.11-1.88,3.06-2.46,4.07,4.05,4.57,7.08,9.54,11.46,12.52,5.47,3.72,12.21,8.32,18.12,8,8.12-.49,14.39,1.23,21.56,7.49-.44-3.83-.65-5.68-.87-7.53l1.79-.46q2.88,10.62,5.77,21.24c-8.2-7.62-16.08-14.43-28.13-13,5.42,10.51-7.66,6.08-7.88,9.35-8.47-9.72-17.68-20-26.51-30.51-6-7.17-11-15.21-17.33-22-3.48-3.76-8.66-6.06-13.28-8.64-3.79-2.11-7.9-3.66-12.92-5.94,12.67-3.43,21.5,1.44,29.13,9.23.63,2.57,1.47,6.06,2.31,9.54l1.79-2.26,12,4.53c-.26-2.55-.67-6.64-1.08-10.73l2.2-2.07c5.17,3.55,10.39,7,15.5,10.68a161.16,161.16,0,0,1,13.36,10.09C475.23,196.89,475.52,199.62,477.13,203.57Z"/><path d="M440.63,335.62c5.25,7.28,14.56,4.78,21.33,8.32-3.82,10.75-4.54,10.65-14.32,4.95A57.22,57.22,0,0,0,414.17,341a312.82,312.82,0,0,1-38,.59c13.6-2.56,25-13.56,40.56-8.62,7.62,2.41,16.13,2,24.21,2.89Z"/><path d="M34.11,207.41c-2.24,8.86-4.19,17.5-6.73,26-.54,1.81-3.19,3-4.86,4.45-.66-1.65-2.05-3.39-1.87-4.95.92-8.1,2.24-16.15,3.57-25.25L12.56,206.3C21,194.4,27.81,207.78,34.11,207.41Z"/><path d="M370.53,253.28c2,3.29,3.91,6.57,7.17,12.06l-14.9-6.12-8.67,2.85c.83-2.05,1.48-3.64,2.12-5.23l-1.36-1.33L338.3,267.33c8.12-17.7,15.9-20.58,32.48-13.8Z"/><path d="M6.93,182.46l14.23,5.08-.55,9.7c-1.31,2.95-7.63-2.34-9.38,5.45-.79,3.5-5.36,6.16-9,10.06l2.26-18.82,4.35,5.73,7.51-8.32H4.94Z"/><path d="M38.45,227.91l5.75,1.65L39.93,246.8l2.08.85,2.14-4,1.34.28L40,262.75c0-14.92-6.36-30.08-1.68-45.25l2.71.19C40.28,220.65,39.53,223.62,38.45,227.91Z"/><path d="M170.35,360.84c-14.94,5.84-22.73,4.29-23.64-6.39l24,3.2Z"/><path d="M225.56,116.84c.2-2.5.41-5,.61-7.42,13.77-2,13.77-2,16.44,6.07L232,120.06l-6.72-3.47S225.56,116.84,225.56,116.84Z"/><path class="cls-1" d="M303.48,193.27l4.58,4.18h-8.88L294.87,210l-1.82-.42c.58-6.34,1-12.7,1.89-19,.15-1.08,2.1-1.91,3.22-2.85Z"/><path d="M452.63,358.89l-31.82-8.12.71-3.13,32,7.4C453.22,356.32,452.93,357.61,452.63,358.89Z"/><path d="M319.35,205.13c4.55.32,9.09.92,13.64.9,4.34,0,8.68-.68,13.14-.28-8.41,5.05-17.75,1.92-26.65,2.72Z"/><path d="M347.13,164.64c-3.17-12.91-1.07-14.81,11.25-10.2L349,155.6C348.4,158.52,347.76,161.58,347.13,164.64Z"/></svg>