<?xml version="1.0" encoding="utf-8"?>
<!-- Generator: Adobe Illustrator 22.0.0, SVG Export Plug-In . SVG Version: 6.00 Build 0)  -->
<svg version="1.1" id="Layer_1" xmlns="http://www.w3.org/2000/svg" xmlns:xlink="http://www.w3.org/1999/xlink" x="0px" y="0px"
	 viewBox="0 0 512 481" style="enable-background:new 0 0 512 481;" xml:space="preserve">
<style type="text/css">
	.st0{fill:#FFFFFF;}
</style>
<rect width="512" height="481"/>
<title>Artboard 1</title>
<g>
	<path class="st0" d="M14.7,260.8V129.2c5-8.4,14.5-7.2,22.8,1.6h9.1c7.1-10.2,14.1-22.2,23-32.6c15.6-18.4,32.3-35.7,48.3-53.7
		c1.8-2,3.9-5.4,3.3-7.4c-3.2-10.4,0.5-17.6,8.9-23.4h253.5c1.4,1.5,3,4.5,4.3,4.4c9.9-1.3,16.4,4.7,23.8,9.5
		c4.8,3.1,10.2,5.8,15.7,7c4.4,0.9,7.1,1.7,6.8,6.7c0,1.2,0.6,2.4,1.5,3.2c7.2,4.4,10.8,10.3,10.6,19.1c-0.1,2.8,4,5.8,5.3,7.3
		c2.4,3.8,3.4,6.7,5.4,8.6c6.3,5.8,15.3,9.2,16.5,19.3c0,0.3,0.8,0.6,1.5,1.1l6.9-1.8l3.5,17.1l1.7-1.4l4,5.2
		c5.3-1.3,6.5-5.3,6.5-11.1c-0.3-31.4-0.1-62.8-0.1-94.2c0.5,2.4,1.6,4.9,1.6,7.3c0.1,149.2,0.1,298.5,0.1,447.7H14.7v-76.4l23-9.6
		c0-1.5,0.7-2.8,2-3.5c4.1-2.8,8.8-5,12.1-8.5c2.3-2.5,2.7-6.9,3.8-9.9l-13.5,7l-0.7-6.2l-2.8,0.4c0.5,3,0.9,6,1.2,7.4
		c-3.3,0.5-6.5,0.7-9.4,1.6c-5.2,1.5-10.4,3.4-15.5,5.1v-58.5l20.6-5.3l0.8-1.3l-8.7-2.4l-0.4-1.3l20.1-3.6c2.3-1.7,5-6.1,4.1-9.8
		c-1.8-7.7-5.5-15-8.3-22.5c-0.4-1.2-0.6-3.4-1-3.4c-2.8-0.1-5.6,0.1-8.4,0.4c-0.6-2-1.6-5.3-2.6-8.7l-0.8,0.3l0.9,11.5l-1.9,1.5
		l-8-5.9l7.9-6.5H14.7z M430.1,330.2c5.8,1.4,4-3.2,3.7-5.4c-0.7-6.9-2.5-13.6-2.9-20.5c-0.5-9.1-0.1-18.2-0.1-27.4
		c-5,2.1-9.1,7.2-14.1-0.6c-1.2-1.9-10-1.5-13.1,0.8c-6.3,4.6-11.5,10.9-16.4,17c-2,2.5-2.2,6.5-3.2,9.9c3,0.8,6,1.7,9,2.3
		c3.3,0.7,8.8,0,9.7,1.7c5.9,11.2,14.2,18.7,26.8,21.2c0.3,0.1,0.6,0.8,0.9,1.2c-7.6-0.8-15.7-0.5-22.8-2.7
		c-14.7-4.7-25.5,5.7-38.2,8.1c11.9,0.5,23.9,0.4,35.8-0.6c11-0.8,22,1.8,31.5,7.4c9.2,5.4,9.9,5.5,13.5-4.7
		C443.8,334.7,435,337.1,430.1,330.2L430.1,330.2z M227.4,124l-8.7-7.9c-9,5.6-1.2,13.4,0.5,21.5c-7.4-0.9-10.5-13.9-18.4-6.8
		c-1.8-2.3-2.8-4.9-4.6-5.8c-6.1-2.9-12.4-5.5-18.8-7.8c-6.1-2.2-12.6-5.8-18.7-5.5c-9.3,0.5-18.4,3.8-29.5,6.3l7.8,3.6
		c0.2,2.8-0.1,5.3,0.5,7.5c0.9,3.7,3.1,7.1,3.5,10.8c1.5,11.7,13.5,20,25,17.9c4.6-0.8,10.7-0.5,14.4,1.9
		c10.4,6.9,20.2,7.1,30.8,1.4c2.7-1.4,6.1-1.5,9.4-2.2c1.4-1.9,3.9-4.3,5.1-7.2c3.9-9.2,3.7-9.3,11-4c9.5-6.9,16.8-14.7,10.3-28.8
		c-1,4.8-1.9,8.9-2.6,12.6c-3.6,2.4-11.1-4.3-13.6,6c-1.2-4.6-2.5-9.3-3.7-13.9l6.3,3.3l10-4.3c-2.5-7.6-2.5-7.6-15.5-5.7
		C227.8,119.3,227.5,121.6,227.4,124z M364,252.6c3.8,0.6,9.1,3,11.2,1.4c7.5-5.7,12.3-14.2,13.1-23.6c0.5-5.2-2.3-10-7.6-9.8
		c-6.8,0.3-14.3,1.2-20.1,4.4c-10,5.6-18.7,13.4-28.3,19.8c-4.9,3.3-10.5,5-15.2,0.4c-2.7,1-5.3,1.6-7.5,2.9
		c-1.5,0.9-3.4,2.6-3.6,4.2c-0.6,3.8,0.3,7.9-0.5,11.7c-1.4,6.9-3.5,13.6-5.2,20.4l-1.6-0.3v-10.7l-4.9,5.6c0-3.9-0.5-6.5,0.1-8.9
		c1.2-4.6,5-9.7,4-13.5c-1.7-6.4,1.3-10.4,3.5-15.2c2.6-5.7,6.9-11.5,7.1-17.3c0.4-12.4-1.3-24.9-2.3-39.2l-5.3,11l-5-5.2l-7.2-7.1
		l-0.9,1.3l1.8,5.8h-9.9l11.7,7.7c-8.5,9.2-16.2,18-24.5,26.3c-2,2-5.8,2.3-9.4,3.5l-3.2-8.9l-13.1,4.6l11.9,4.5l-0.3,1.2l-22.9-3.8
		l6-3.9l-1-1.7l-28.6,16.8l1.6,0.5l-7.8,13.5c0.5,2.3,1.2,5.8,1.8,8.5c4.3-4.5,9.5-8.3,12.4-13.4c5.2-9.1,8.1-11.6,16.5-10.2
		l0.6,2.1l-7.9,1.9l-5.4,5.9l20.9,7.6l-0.7,2.2l-5.3-0.7c-0.2,2.1-0.4,4.3-0.7,6.4c-10.5-0.7-10.5-0.7-9.9,7.1l7.5-3.5l1.9,2.4
		c-1.7,1.5-3.5,3-5.1,4.6s-3.4,3.7-5.2,5.3c-1.5,1.4-3.8,3.8-4.9,3.4c-5.4-1.9-10.5-4.5-15.4-6.8l-5.7,5.4l-2.2-2l5.1-7.3
		c-2.8-2-5.7-4-6.9-4.9l-9.9,4.8l-2.2-2.6l7.3-2.8l-2.1-2.6l-13.2,7.4l11.3,3.9c-3.6,2.7-1.6,14.2-11.2,5.7c-0.2-0.2-1.3,0.5-2,0.8
		c-5.5,1.8-10.9,3.7-16.5,5.2c-1.2,0.3-2.7-0.6-4-1.1c-2.1-0.8-4.2-2.5-6.3-2.6c-11.4-0.1-22.9,0.9-34.3,0.1
		c-6.1-0.4-10.7,0.4-15.4,4.1c-1.7,1.4-6.4,1.3-8,0c-2.4-2-3.9-5.7-4.7-8.9c-1.6-7-2.4-14.1-3.7-22.4l-16.2-5.7l1.4,13.6
		c9.2-2,9.2-2,8.7,5.2h-19c0.2,3.2,0.4,4.7,0.3,6.1c-0.8,13.2,4.2,24.5,16.4,28.8c13.5,4.8,20.5,14.1,26.6,25.6
		c1.3,2.5,2.5,6.7,4.3,7c7.9,1.5,16,1.8,24.1,2.5c2.9,0.2,5.9,0,8.7,0.4c19.7,3.3,39.2,8,58.8-1.3c5.4-2.5,11.3-3.3,17.2-2.3
		c9.5,2,15.2-2.6,20.9-8.4c0.4-0.4,0.7-0.9,1.2-1.1c7.1-3.2,10.4-12.7,20-12c4.4,0.3,8.9-0.5,13.3-0.7v4.3c8.2-4.9,16-1.9,20.3,3.4
		s4.7,13.5,6.5,19.7l2.1-3.2c2.9,2.6,5.9,5.3,8.8,7.9c-12.6-25.8-15-47.1-5.2-54.7l1.1,4.6l3.5-8.8c0.6,4.4,0.9,6.4,1.2,8.3
		c5-13.3,10-26.4,15.1-39.8c9.4,11.3,11,11.2,19.7,0.3c7.1-8.8,20.6-14.9,28.2-1.3c-15.6-6.4-23-3.7-30.6,13l15.6-11.1l1.3,1.3
		c-0.6,1.5-1.2,3-2,4.9l8.2-2.7l14,5.8C367.7,258.8,365.8,255.7,364,252.6L364,252.6z M357.4,384c-2.1,8.2,4,8.3,8.2,11
		c24.3,15.8,52,18.2,79.6,22.2c8.3,1.2,17.4,3.8,20.9,14.4c4.8,14.4,20,16.3,31.1,25.2V329.1c-3.6-0.4-6.8-0.9-10.1-1.1
		c-3.7-0.3-7.5-0.4-11.3-0.6v6.3l-10.6,0.7c-0.2,2.6-0.4,4.7-0.5,6.9l-1.9,0.7l-3.7-9.3c-1.2,3.2-2.5,5.4-2.9,7.8
		c-0.3,1.7,0.5,3.7,0.4,5.5c-0.3,1.8-0.7,3.5-1.2,5.2l5.6-2.1c2.8,12.2-0.1,23.6-5,34.7l-1.2-11.8l-6,7.4c-0.8,1.7-2.4,2.8-4.2,3.1
		c-3.1,0.5-7.9,1.7-9.3,0.2c-5.3-5.9-9.8,0.3-14.5,0.1c-0.7,0-1.4,3-2.3,5L357.4,384z M463.4,262.7l-2.2-1.2
		c2.3-7.9-0.3-14.1-6.8-18.1c-6.2-3.9-12.7-7.3-19.4-10.3c-5.8-2.6-11.8-5.1-18-6.2c-6.3-1.1-11.9,7-8.9,12.6
		c3.5,6.4,8.2,12.1,12.4,18.3c8.1-4.5,15.9-8.5,24.5-1.1c-4.9-0.2-9.4-1-13.8-0.4c-2.5,0.3-4.9,2.7-6.9,4.6
		c-0.4,0.4,1.1,3.9,1.5,3.9c2.4-0.4,4.7-1.1,7-1.9l-0.8,1.7l14.4,7.9l-0.5,1.4H437c5,7,17.1,8.4,22.4,2.8c2.5,3.3,5,6.6,7.6,10
		l3.1-4.3l9.2,8.2c0.9-2.2,1.7-4.4,3.1-7.7l10,3.7c2.7-5.9,8.9-11.8,0.6-18.6l5.7,2.4c-1.8-6.4-4.2-11.2-4.2-16
		c0-7.8-5.9-9-10.6-9.6c-2.7-0.4-6.3,3.2-8.9,5.7C470.8,254.3,467.2,258.6,463.4,262.7z M118.2,116.3c-9.9,4.1-18.6-7.7-28.2-1.2
		c-8,5.5-15.7,11.4-23.7,16.9c-10.1,6.9-7.2,17.5-7.8,27c-7.9-0.4-11,2.5-10.5,8.2l6.8-5.7l1.1,6l2-3l3.1,12.4l24.6-9.4l-8.7-2.1
		c5.3-1.9,11-2.3,11.9-4.6c2.8-7,5.4-3.7,9-1.3c3,2,6.4,3.4,11,5.8L118.2,116.3z M120.6,226.9c5.4-3,10.8-5.9,16-9.2
		c3.8-2.3,7.5-5,10.9-7.9c2.1-1.9,4.6-4.3,5.1-6.9c0.7-3.2,1.4-7-3.9-9c-5.8-2.2-8.6-12.3-17.5-6.4c-8.1-8.6-17.6-0.5-27.7-3.8
		c1.1,16.2,2.1,30.8,3.1,45.4l-19.1,11.3c0.4,1.1,0.8,2.2,1.2,3.2c2.7-0.8,6-0.9,8.2-2.6c8.4-6.2,17.3-10.6,28-9.5
		c12.5,1.3,24.9,3,37.7,4.6C149.9,227.6,136.5,223.4,120.6,226.9z M464.5,205.8c-1.5-3.7-1.8-6.3-3.2-7.5c-4-3.4-8.2-6.6-12.6-9.5
		c-4.8-3.4-9.7-6.7-14.6-10.1l-2.1,2c0.4,3.9,0.8,7.7,1,10.1l-11.3-4.3l-1.7,2.1c-0.8-3.3-1.6-6.6-2.2-9
		c-7.2-7.3-15.5-11.9-27.5-8.7c4.7,2.1,8.6,3.6,12.2,5.6c4.4,2.4,9.2,4.6,12.5,8.1c5.9,6.4,10.7,14,16.3,20.7
		c8.3,9.9,17,19.6,25,28.8c0.2-3.1,12.5,1.1,7.4-8.8c11.4-1.4,18.8,5.1,26.5,12.3c-1.8-6.7-3.6-13.3-5.4-20l-1.7,0.4
		c0.2,1.7,0.4,3.5,0.8,7.1c-6.8-5.9-12.7-7.5-20.3-7.1c-5.6,0.3-11.9-4-17.1-7.5c-4.1-2.8-7-7.5-10.8-11.8c0.5-0.9,1.7-3.9,2.3-3.8
		c5.1,0.7,10,2.1,14,3c2,4.2,3.7,7.6,5.4,11.2l8.4-1.7v-1.3L464.5,205.8z M46.9,209.4c-5.9,0.3-12.4-12.3-20.3-1l11,1.2
		c-1.3,8.6-2.5,16.2-3.4,23.8c-0.2,1.5,1.1,3.1,1.8,4.7c1.6-1.4,4.1-2.5,4.6-4.2C42.9,225.9,44.8,217.7,46.9,209.4L46.9,209.4z
		 M21.3,185.8l-1.9,8.4h10.7l-7.1,7.8l-4.1-5.4l-2.1,17.7c3.4-3.7,7.7-6.2,8.5-9.5c1.6-7.3,7.6-2.4,8.8-5.1l0.5-9.1L21.3,185.8z
		 M51,228.7c1-4,1.7-6.8,2.4-9.6l-2.6-0.2c-4.4,14.3,1.6,28.6,1.6,42.7l5.2-17.8l-1.3-0.3l-2,3.8l-2-0.8l4-16.3L51,228.7z
		 M175.3,354l0.4-3l-22.6-3C153.9,358,161.2,359.5,175.3,354L175.3,354z M441.4,352.1c0.3-1.2,0.6-2.4,0.8-3.6l-30.2-7l-0.7,3
		L441.4,352.1z M315.8,207.2l0.1,3.1c8.4-0.8,17.2,2.2,25.1-2.6c-4.2-0.4-8.3,0.2-12.4,0.3C324.3,208.1,320.1,207.5,315.8,207.2z
		 M342,169c0.6-2.9,1.2-5.8,1.8-8.5l8.8-1.1C340.9,155.1,339,156.9,342,169z"/>
	<path d="M127.3,8.8c-8.5,5.9-12.3,13.3-9.1,23.9c0.6,2-1.6,5.5-3.4,7.6C98.5,58.5,81.3,76.3,65.4,95.1c-9,10.7-16.2,22.9-23.5,33.3
		h-9.3c-8.4-9.1-18.1-10.3-23.3-1.7V8.8H127.3z"/>
	<path d="M502.7,8.8c0,32.1-0.1,64.2,0.1,96.3c0,5.9-1.2,9.9-6.6,11.3l-4.1-5.3l-1.7,1.4l-3.6-17.4l-7.1,1.8
		c-0.7-0.5-1.5-0.8-1.5-1.1c-1.2-10.4-10.4-13.8-16.8-19.7c-2.1-1.9-3.2-4.8-5.6-8.7c-1.2-1.6-5.4-4.6-5.4-7.5
		c0.2-9.1-3.4-15.1-10.8-19.6c-1-0.8-1.6-2-1.6-3.3c0.3-5.2-2.4-5.9-6.9-6.9c-5.6-1.2-11.1-4-16-7.1c-7.5-4.8-14.2-11-24.3-9.7
		c-1.2,0.2-2.9-2.9-4.3-4.5L502.7,8.8z"/>
	<path d="M9.4,261.2h14.7l-8.1,6.6l8.2,6l1.9-1.5l-0.9-11.7l0.9-0.3c1,3.4,2,6.8,2.6,8.9c2.8-0.3,5.7-0.4,8.5-0.4
		c0.4,0,0.6,2.3,1.1,3.5c2.9,7.6,6.7,15.1,8.5,23c0.9,3.7-1.8,8.3-4.2,10L22,308.9l0.4,1.3l8.9,2.4l-0.8,1.3l-21.1,5.4V261.2z"/>
	<path d="M9.4,379.2c5.3-1.8,10.5-3.7,15.9-5.3c3-0.9,6.3-1.1,9.7-1.6c-0.2-1.4-0.7-4.5-1.2-7.5l2.9-0.4l0.8,6.3l13.8-7.1
		c-1.1,3.1-1.5,7.6-3.9,10.1c-3.3,3.6-8.2,5.8-12.3,8.7c-1.3,0.7-2.1,2.1-2.1,3.6l-23.6,9.8V379.2z"/>
	<path d="M301.8,195l5.4-11.3c1,14.6,2.8,27.4,2.4,40c-0.2,6-4.6,11.8-7.3,17.7c-2.2,4.9-5.3,9-3.6,15.5c1,4-2.9,9.1-4.1,13.8
		c-0.6,2.4-0.1,5.2-0.1,9.1l5-5.7v10.9l1.6,0.3c1.8-6.9,4-13.8,5.3-20.9c0.8-3.9-0.1-8,0.5-11.9c0.3-1.6,2.1-3.4,3.7-4.3
		c2.3-1.3,4.9-1.9,7.7-3c4.8,4.7,10.5,2.9,15.6-0.4c9.8-6.5,18.7-14.5,29-20.2c5.9-3.3,13.6-4.2,20.5-4.5c5.4-0.2,8.3,4.7,7.8,10
		c-0.9,9.6-5.7,18.3-13.4,24.1c-2.2,1.7-7.6-0.8-11.5-1.4l0.2,0.2c-7.8-14-21.6-7.7-28.8,1.3c-9,11.2-10.6,11.3-20.2-0.3
		c-5.2,13.6-10.3,27.1-15.4,40.6c-0.3-1.9-0.6-4-1.2-8.5l-3.6,9c-0.4-1.7-0.8-3.2-1.2-4.7c-10,7.8-7.6,29.5,5.3,55.9
		c-3-2.7-6.1-5.4-9-8.1l-2.1,3.3c-1.9-6.3-2.4-14.8-6.7-20.2c-4.3-5.4-12.4-8.5-20.7-3.5v-4.4c-4.5,0.3-9.1,1.1-13.6,0.8
		c-9.9-0.7-13.2,9-20.5,12.3c-0.5,0.2-0.8,0.7-1.2,1.1c-5.8,6-11.6,10.7-21.3,8.6c-6-1-12.1-0.2-17.5,2.4c-20,9.6-40,4.8-60.1,1.4
		c-2.9-0.5-6-0.2-8.9-0.4c-8.2-0.7-16.5-1.1-24.6-2.6c-1.8-0.3-3.1-4.6-4.4-7.1c-6.1-11.7-13.4-21.3-27.1-26.2
		c-12.5-4.4-17.6-15.9-16.8-29.5c0.1-1.5-0.1-3-0.3-6.2h19.4c0.5-7.3,0.5-7.3-8.9-5.3l-1.4-13.9l16.6,5.8c1.3,8.5,2.2,15.8,3.8,22.9
		c0.7,3.3,2.3,7,4.8,9.1c1.6,1.4,6.4,1.4,8.1,0c4.9-3.9,9.6-4.7,15.8-4.2c11.6,0.8,23.4-0.2,35.1-0.1c2.2,0,4.3,1.8,6.5,2.6
		c1.3,0.5,2.9,1.5,4.1,1.2c5.7-1.6,11.2-3.5,16.9-5.3c0.7-0.2,1.8-1,2.1-0.8c9.8,8.7,7.8-3.1,11.5-5.8l-11.6-4l13.5-7.5l2.1,2.6
		l-7.5,2.8l2.2,2.7l10.1-4.9c1.2,0.9,4.2,2.9,7.1,5l-5.2,7.4l2.3,2.1l5.8-5.5c5.1,2.3,10.3,5,15.8,7c1.1,0.4,3.4-2.1,5-3.5
		c1.9-1.7,3.5-3.7,5.3-5.4s3.5-3.2,5.2-4.7l-1.9-2.4l-7.6,3.5c-0.7-8-0.7-8,10.1-7.2c0.2-2.2,0.5-4.4,0.7-6.6l5.5,0.7l0.7-2.2
		l-21.4-7.8l5.5-6.1l8.1-1.9l-0.7-2.2c-8.6-1.5-11.6,1.1-16.9,10.4c-2.9,5.2-8.2,9.1-12.6,13.7c-0.6-2.8-1.3-6.3-1.8-8.7l8-13.8
		l-1.7-0.5l29.2-17.2l1,1.7l-6.1,4l23.5,3.9l0.3-1.3l-12.2-4.6l13.4-4.7l3.2,9.1c3.6-1.3,7.5-1.6,9.6-3.6c8.5-8.5,16.4-17.5,25-26.9
		l-12-7.9h10l-1.8-5.9l1-1.3l7.3,7.2c-1.1,0.9-3,1.7-3.1,2.7c-0.8,6.1-1.3,12.2-1.8,18.3l1.8,0.4l4.2-12.1h8.6L301.8,195z"/>
	<path d="M359.6,387.2l62.3,3.6c1-2.1,1.7-5.1,2.4-5.1c4.8,0.2,9.5-6.2,14.9-0.1c1.4,1.6,6.3,0.3,9.5-0.2c1.9-0.3,3.5-1.5,4.3-3.2
		l6.2-7.6l1.2,12.1c5-11.4,7.9-23,5.1-35.5l-5.7,2.2c0.6-1.7,1-3.5,1.3-5.3c0.1-1.9-0.8-3.9-0.4-5.6c0.5-2.4,1.7-4.7,3-7.9l3.8,9.5
		l1.9-0.7c0.2-2.2,0.3-4.3,0.5-7l10.9-0.7v-6.5c3.9,0.2,7.7,0.3,11.6,0.7c3.4,0.3,6.7,0.7,10.3,1.2v130.6
		c-11.3-9.1-26.9-11.1-31.8-25.8c-3.6-10.8-12.9-13.5-21.4-14.7c-28.2-4-56.5-6.5-81.3-22.6C363.6,395.6,357.4,395.6,359.6,387.2z"
		/>
	<path d="M226.5,121.1l3.8,14.3c2.6-10.6,10.2-3.7,13.9-6.2c0.8-3.8,1.6-7.9,2.7-12.9c6.7,14.3-0.7,22.4-10.5,29.4
		c-7.5-5.5-7.3-5.4-11.2,4c-1.3,3-3.9,5.4-5.3,7.3c-3.3,0.7-6.8,0.8-9.6,2.2c-10.9,5.8-20.9,5.5-31.5-1.5c-3.8-2.5-10-2.8-14.7-1.9
		c-11.7,2.2-24-6.3-25.6-18.3c-0.5-3.8-2.6-7.3-3.6-11.1c-0.6-2.2-0.3-4.7-0.5-7.6l-7.9-3.7c11.3-2.6,20.6-6,30.1-6.4
		c6.3-0.3,12.8,3.4,19.1,5.6c6.5,2.3,12.9,5,19.2,8c1.9,1,2.9,3.6,4.7,5.9c8.1-7.3,11.3,5.9,18.8,6.9c-1.8-8.4-9.7-16.3-0.5-22
		l8.9,8L226.5,121.1z"/>
	<path d="M468,263.2c3.9-4.2,7.6-8.7,11.7-12.5c2.7-2.5,6.4-6.2,9.1-5.8c4.9,0.7,10.9,1.8,10.9,9.8c0,4.9,2.5,9.8,4.3,16.4l-5.8-2.5
		c8.5,7,2.1,13-0.6,19l-10.3-3.8c-1.4,3.4-2.2,5.6-3.1,7.9l-9.4-8.4l-3.2,4.4c-2.6-3.5-5.2-6.9-7.8-10.2c-5.4,5.6-17.7,4.3-22.9-2.9
		h9.3l0.6-1.4l-14.7-8.1l0.8-1.8c-2.3,0.8-4.7,1.5-7.1,1.9c-0.4,0-2-3.6-1.6-4c2.1-1.9,4.5-4.4,7-4.7c4.4-0.6,9,0.2,14.1,0.4
		c-8.8-7.6-16.8-3.4-25.1,1.2c-4.3-6.3-9.1-12.2-12.7-18.7c-3.1-5.7,2.6-14,9.1-12.9c6.3,1.1,12.5,3.7,18.4,6.3
		c6.8,3.1,13.4,6.6,19.8,10.5c6.6,4.1,9.2,10.4,6.9,18.5L468,263.2z"/>
	<path d="M115.2,113.6l-9.7,49.9c-4.7-2.5-8.2-3.9-11.2-6c-3.6-2.5-6.3-5.9-9.2,1.3c-1,2.4-6.8,2.8-12.2,4.7l8.9,2.2l-25.2,9.6
		l-3.2-12.7l-2,3.2l-1.1-6l-7,5.8c-0.5-5.8,2.7-8.8,10.7-8.4c0.6-9.7-2.4-20.6,7.9-27.6c8.2-5.6,16.1-11.6,24.3-17.2
		C96.1,105.7,105.1,117.8,115.2,113.6z"/>
	<path d="M117.5,226.6c16.3-3.5,30,0.8,42.8,9.6c-13-1.6-25.7-3.4-38.5-4.7c-10.9-1.1-20.1,3.3-28.6,9.7c-2.2,1.6-5.5,1.8-8.3,2.6
		c-0.4-1.1-0.8-2.2-1.2-3.3l19.5-11.6c-1-15-2-29.9-3.2-46.5c10.4,3.4,20.1-4.9,28.3,3.9c9.1-6.1,11.9,4.3,17.9,6.5
		c5.5,2,4.7,5.9,4,9.2c-0.5,2.6-3,5.1-5.2,7c-3.5,3-7.2,5.7-11.1,8C128.6,220.5,123,223.4,117.5,226.6z"/>
	<path d="M434.2,332.4c-0.3-0.4-0.5-1.1-0.9-1.2c-12.8-2.6-21.4-10.2-27.4-21.7c-1-1.8-6.5-1.1-9.9-1.8c-3.1-0.6-6.1-1.6-9.2-2.3
		c1-3.4,1.2-7.5,3.2-10.1c5-6.3,10.3-12.7,16.7-17.3c3.2-2.3,12.2-2.8,13.4-0.8c5.1,7.9,9.3,2.7,14.5,0.6c0,9.4-0.4,18.7,0.1,28
		c0.4,7,2.2,14,3,21c0.2,2.3,2.1,6.9-3.8,5.5L434.2,332.4z"/>
	<path d="M469.1,204.9l1.4,0.4v1.3l-8.6,1.8c-1.8-3.7-3.4-7.2-5.5-11.5c-4.1-1-9.1-2.3-14.3-3.1c-0.7-0.1-1.8,2.9-2.4,3.9
		c3.9,4.4,6.8,9.2,11,12.1c5.3,3.6,11.8,8,17.5,7.7c7.8-0.5,13.9,1.2,20.8,7.2c-0.4-3.7-0.6-5.5-0.8-7.3l1.7-0.4
		c1.8,6.8,3.7,13.6,5.6,20.5c-7.9-7.3-15.5-13.9-27.1-12.5c5.2,10.1-7.4,5.9-7.6,9c-8.2-9.4-17-19.3-25.5-29.4
		c-5.8-6.9-10.6-14.7-16.7-21.2c-3.4-3.6-8.3-5.8-12.8-8.3c-3.7-2-7.6-3.5-12.4-5.7c12.2-3.3,20.7,1.4,28.1,8.9
		c0.6,2.5,1.4,5.8,2.2,9.2l1.7-2.2l11.6,4.4c-0.3-2.5-0.6-6.4-1-10.3l2.1-2c5,3.4,10,6.7,14.9,10.3c4.5,3,8.8,6.3,12.9,9.7
		C467.3,198.5,467.5,201.1,469.1,204.9z"/>
	<path d="M433.9,332.2c5.1,7,14,4.6,20.6,8c-3.7,10.4-4.4,10.3-13.8,4.8c-9.7-5.8-21-8.4-32.2-7.6c-12.2,0.9-24.4,1.1-36.6,0.6
		c13.1-2.5,24.1-13.1,39.1-8.3c7.3,2.3,15.5,1.9,23.3,2.8L433.9,332.2z"/>
	<path d="M42.2,208.6c-2.2,8.5-4,16.9-6.5,25.1c-0.5,1.7-3.1,2.9-4.7,4.3c-0.6-1.6-2-3.3-1.8-4.8c0.9-7.8,2.2-15.6,3.4-24.3
		l-11.2-1.3C29.6,196.1,36.2,209,42.2,208.6z"/>
	<path d="M366.4,252.8c1.9,3.2,3.8,6.3,6.9,11.6l-14.4-5.9l-8.4,2.7c0.8-2,1.4-3.5,2-5l-1.3-1.3l-16,11.4
		c7.8-17.1,15.3-19.8,31.3-13.3L366.4,252.8z"/>
	<path d="M16,184.6l13.7,4.9l-0.5,9.3c-1.3,2.8-7.4-2.3-9,5.3c-0.8,3.4-5.2,5.9-8.7,9.7l2.2-18.1l4.2,5.5l7.2-8h-11L16,184.6z"/>
	<path d="M46.4,228.4L52,230l-4.1,16.6l2,0.8l2.1-3.9l1.3,0.3L47.9,262c0-14.4-6.1-29-1.6-43.6l2.6,0.2
		C48.2,221.4,47.5,224.3,46.4,228.4z"/>
	<path d="M173.5,356.5c-14.4,5.6-21.9,4.1-22.8-6.2l23.1,3.1L173.5,356.5z"/>
	<path d="M226.7,121.4c0.2-2.4,0.4-4.8,0.6-7.1c13.3-1.9,13.3-1.9,15.8,5.8l-10.2,4.4l-6.5-3.3L226.7,121.4z"/>
	<path class="st0" d="M301.8,195l4.4,4h-8.6l-4.2,12.1l-1.8-0.4c0.6-6.1,1-12.2,1.8-18.3c0.1-1,2-1.8,3.1-2.7L301.8,195z"/>
	<path d="M445.5,354.6l-30.7-7.8l0.7-3l30.8,7.1C446.1,352.1,445.8,353.4,445.5,354.6z"/>
	<path d="M317.1,206.5c4.4,0.3,8.8,0.9,13.1,0.9c4.2,0,8.4-0.7,12.7-0.3c-8.1,4.9-17.1,1.8-25.7,2.6L317.1,206.5z"/>
	<path d="M343.8,167.4c-3.1-12.4-1-14.3,10.8-9.8l-9,1.1C345.1,161.5,344.4,164.5,343.8,167.4z"/>
</g>
</svg>
